<svg width="20" height="20" viewBox="0 0 20 20" fill="none" xmlns="http://www.w3.org/2000/svg">
<path fill-rule="evenodd" clip-rule="evenodd" d="M2 3C2 2.44772 2.44772 2 3 2H17C17.5523 2 18 2.44771 18 3V9C18 9.55229 18.4477 10 19 10C19.5523 10 20 9.55229 20 9V3C20 1.34315 18.6569 0 17 0H3C1.34315 0 0 1.34315 0 3V17C0 17.5523 0.447715 18 1 18C1.55228 18 2 17.5523 2 17V3ZM14.7071 7.29289C14.3166 6.90237 13.6834 6.90237 13.2929 7.29289L2.29289 18.2929C2.0069 18.5789 1.92134 19.009 2.07612 19.3827C2.2309 19.7564 2.59554 20 3 20H10H17C18.6569 20 20 18.6569 20 17V13C20 12.7348 19.8946 12.4804 19.7071 12.2929L14.7071 7.29289ZM10 18H5.41421L14 9.41421L18 13.4142V17C18 17.5523 17.5523 18 17 18H10ZM6 6.5C6 6.22386 6.22386 6 6.5 6C6.77614 6 7 6.22386 7 6.5C7 6.77614 6.77614 7 6.5 7C6.22386 7 6 6.77614 6 6.5ZM6.5 4C5.11929 4 4 5.11929 4 6.5C4 7.88071 5.11929 9 6.5 9C7.88071 9 9 7.88071 9 6.5C9 5.11929 7.88071 4 6.5 4Z" fill="white"/>
</svg>
