<svg width="20" height="15" viewBox="0 0 20 15" fill="none" xmlns="http://www.w3.org/2000/svg">
<path d="M1 12.5582V3.18052C1 2.44064 1.89543 1.84085 3 1.84085H17C18.1046 1.84085 19 2.44064 19 3.18052V7.19952M19 12.5582C19 13.2981 18.1046 13.8979 17 13.8979H10H3L14 6.52969L19 9.87886V12.5582Z" stroke="white" stroke-width="2" stroke-linecap="round" stroke-linejoin="round"/>
<path d="M6.5 6.52969C7.32843 6.52969 8 6.07985 8 5.52494C8 4.97003 7.32843 4.52019 6.5 4.52019C5.67157 4.52019 5 4.97003 5 5.52494C5 6.07985 5.67157 6.52969 6.5 6.52969Z" stroke="white" stroke-width="2" stroke-linecap="round" stroke-linejoin="round"/>
</svg>
