<svg width="22" height="22" viewBox="0 0 22 22" fill="none" xmlns="http://www.w3.org/2000/svg">
<path d="M1 10.1791C1 9.58151 1.26726 9.0152 1.72859 8.63528L9.72858 2.04705C10.4671 1.43886 11.5329 1.43886 12.2714 2.04705L20.2714 8.63528C20.7327 9.0152 21 9.58151 21 10.1791V19C21 20.1046 20.1046 21 19 21H15.5C14.3954 21 13.5 20.1046 13.5 19V15.9412C13.5 14.8366 12.6046 13.9412 11.5 13.9412H10.5C9.39543 13.9412 8.5 14.8366 8.5 15.9412V19C8.5 20.1046 7.60457 21 6.5 21H3C1.89543 21 1 20.1046 1 19V10.1791Z" stroke="black" stroke-width="2" stroke-linejoin="round"/>
</svg>
